<svg fill="none" height="16" width="16" xmlns="http://www.w3.org/2000/svg"><path d="m15.5 8a7.5 7.5 0 1 1 -15 0 7.5 7.5 0 0 1 15 0z" stroke="#acacac"/><path d="m7.171 8.626v-.343c0-.296.06-.554.178-.774.119-.22.336-.452.651-.7.304-.232.503-.42.599-.565a.849.849 0 0 0 .147-.487c0-.2-.07-.354-.208-.459-.139-.105-.333-.158-.581-.158-.434 0-.929.152-1.484.455l-.473-1.016a3.93 3.93 0 0 1 2.052-.579c.596 0 1.069.153 1.419.459.353.306.529.714.529 1.224 0 .34-.072.633-.217.88-.145.248-.42.526-.824.835-.278.22-.454.386-.53.5a.83.83 0 0 0 -.108.45v.278zm-.138 1.586c0-.26.065-.456.195-.589s.32-.2.568-.2c.24 0 .425.069.555.205.133.136.2.33.2.584 0 .244-.067.437-.2.58-.133.139-.318.208-.555.208-.243 0-.43-.068-.564-.204-.133-.139-.2-.334-.2-.584z" fill="#acacac"/></svg>